<svg width="28" height="28" viewBox="0 0 28 28" fill="none" xmlns="http://www.w3.org/2000/svg">
<rect width="28" height="28" fill="black"/>
<path d="M13.5125 6.68055L14.0997 5.66555C14.4622 5.03118 15.2706 4.8173 15.905 5.1798C16.5394 5.5423 16.7532 6.35068 16.3907 6.98505L10.7321 16.7798H14.8247C16.1515 16.7798 16.8946 18.3386 16.3182 19.4188H4.3195C3.58725 19.4188 3 18.8316 3 18.0993C3 17.3671 3.58725 16.7798 4.3195 16.7798H7.6835L11.99 9.31593L10.6451 6.98143C10.2826 6.34705 10.4965 5.54593 11.1309 5.17618C11.7652 4.81368 12.5664 5.02755 12.9361 5.66193L13.5125 6.68055ZM8.423 20.7782L7.15425 22.9786C6.79175 23.6129 5.98337 23.8268 5.349 23.4643C4.71462 23.1018 4.50075 22.2934 4.86325 21.6591L5.80575 20.0278C6.8715 19.6979 7.73788 19.9517 8.423 20.7782ZM19.3487 16.7871H22.7816C23.5139 16.7871 24.1011 17.3743 24.1011 18.1066C24.1011 18.8388 23.5139 19.4261 22.7816 19.4261H20.8749L22.1618 21.6591C22.5243 22.2934 22.3104 23.0946 21.676 23.4643C21.0416 23.8268 20.2405 23.6129 19.8707 22.9786C17.703 19.2194 16.0754 16.4064 14.9951 14.5323C13.8895 12.6256 14.6797 10.7116 15.4591 10.0627C16.3255 11.5489 17.6196 13.7928 19.3487 16.7871Z" fill="white"/>
</svg>
