<svg width="28" height="28" viewBox="0 0 28 28" fill="none" xmlns="http://www.w3.org/2000/svg">
<rect width="28" height="28" fill="white"/>
<path d="M8.33525 7.14229C10.6282 8.8012 13.0944 12.1648 14 13.9697C14.9056 12.1648 17.3718 8.8012 19.6648 7.14226C21.3192 5.94533 24 5.01916 24 7.96626C24 8.55485 23.6498 12.9106 23.4444 13.6178C22.7305 16.0763 20.1291 16.7034 17.815 16.3238C21.8599 16.9872 22.8889 19.1847 20.6667 21.3821C16.4462 25.5555 14.6007 20.335 14.1279 18.9973C14.0412 18.7521 14.0006 18.6374 14 18.7349C13.9994 18.6374 13.9588 18.7521 13.8721 18.9973C13.3993 20.335 11.5538 25.5555 7.33335 21.3821C5.11113 19.1847 6.14004 16.9872 10.185 16.3238C7.87088 16.7033 5.26947 16.0763 4.55556 13.6178C4.35018 12.9106 4 8.55478 4 7.96623C4 5.01916 6.68081 5.9453 8.33525 7.14229Z" fill="black"/>
</svg>
